<svg width="51" height="51" viewBox="0 0 51 51" fill="none" xmlns="http://www.w3.org/2000/svg">
<path d="M4.72249 25.243C4.72249 23.2985 5.3909 21.6058 6.7277 20.1648C8.06451 18.7239 9.82666 17.8471 12.0142 17.5346C11.2155 15.486 11.1461 13.5676 11.8058 11.7794C12.4655 9.99121 13.6287 8.59364 15.2954 7.58669C16.9621 6.57974 18.785 6.24987 20.7642 6.59709C22.7433 6.9443 24.3405 8.12485 25.5558 10.1387C26.8058 8.0554 28.4117 6.85748 30.3735 6.54497C32.3353 6.23247 34.1496 6.57968 35.8162 7.58662C37.4829 8.59356 38.6461 9.99112 39.3058 11.7793C39.9655 13.5675 39.8961 15.4859 39.0975 17.5345C41.285 17.847 43.0471 18.7237 44.384 20.1647C45.7208 21.6057 46.3892 23.2984 46.3892 25.2428C46.3892 27.1873 45.7208 28.88 44.384 30.321C43.0471 31.7619 41.285 32.6387 39.0975 32.9512C39.8961 34.9998 39.9655 36.9182 39.3058 38.7064C38.6461 40.4946 37.4829 41.8922 35.8162 42.8991C34.1496 43.9061 32.3353 44.2533 30.3735 43.9408C28.4117 43.6283 26.8058 42.4304 25.5558 40.3471C24.3405 42.361 22.7346 43.5328 20.7381 43.8627C18.7416 44.1926 16.9274 43.8714 15.2954 42.8992C13.6287 41.8922 12.4655 40.4947 11.8058 38.7065C11.1461 36.9183 11.2155 34.9999 12.0142 32.9513C9.82666 32.6388 8.06451 31.7621 6.7277 30.3211C5.3909 28.8801 4.72249 27.1874 4.72249 25.243ZM7.84749 25.243C7.84749 27.0138 8.58534 28.2898 10.061 29.0711C11.5367 29.8523 12.969 29.8263 14.3579 28.9929L17.1183 27.3263C17.0142 26.9443 16.9447 26.5797 16.91 26.2325C16.8753 25.8853 16.8579 25.5554 16.8579 25.2429C16.8579 24.9304 16.8753 24.6006 16.91 24.2533C16.9447 23.9061 17.0142 23.5415 17.1183 23.1596L14.3579 21.4929C12.969 20.6596 11.5367 20.6336 10.061 21.4148C8.58534 22.1961 7.84749 23.4721 7.84749 25.243ZM16.8579 10.295C15.3301 11.1978 14.5142 12.4044 14.41 13.9148C14.3058 15.4252 15.0003 16.7186 16.4933 17.795L18.8371 19.4617C19.0454 19.2533 19.3232 19.0016 19.6704 18.7065C20.0176 18.4113 20.3649 18.1596 20.7121 17.9513C21.0593 17.7429 21.4499 17.5519 21.884 17.3783C22.318 17.2047 22.8128 17.0658 23.3683 16.9617L23.3683 13.7846C23.3683 12.1526 22.6652 10.9374 21.259 10.1388C19.8527 9.34014 18.3857 9.39223 16.8579 10.295ZM16.4933 32.6388C14.9655 33.6804 14.2624 34.9738 14.3839 36.519C14.5055 38.0641 15.3301 39.2881 16.8579 40.1908C18.3857 41.0936 19.8527 41.1457 21.259 40.3471C22.6652 39.5485 23.3683 38.3332 23.3683 36.7012V33.5242C22.8128 33.42 22.318 33.2811 21.884 33.1075C21.4499 32.9339 21.0593 32.7603 20.7121 32.5867C20.3649 32.4131 20.035 32.196 19.7225 31.9356C19.41 31.6752 19.1149 31.3714 18.8371 31.0242L16.4933 32.6388ZM27.7433 16.9616L28.9933 17.3783C29.41 17.5172 29.8093 17.7082 30.1912 17.9512C30.5732 18.1943 30.9465 18.4373 31.311 18.6804C31.6756 18.9234 31.9968 19.1839 32.2746 19.4616L34.5662 17.847C36.094 16.7706 36.8145 15.4512 36.7277 13.8887C36.6409 12.3262 35.8162 11.1283 34.2537 10.295C32.6912 9.35746 31.2155 9.2967 29.8267 10.1127C28.4378 10.9287 27.7433 12.1526 27.7433 13.7846L27.7433 16.9616ZM27.7433 36.7012C27.7433 38.3332 28.4638 39.5398 29.9048 40.321C31.3458 41.1023 32.7954 41.0589 34.2537 40.1908C35.7815 39.288 36.5888 38.0814 36.6756 36.571C36.7624 35.0606 36.0593 33.7498 34.5662 32.6387L32.2746 31.0241C32.0662 31.3019 31.7711 31.5623 31.3892 31.8054C31.0072 32.0484 30.6079 32.2915 30.1912 32.5346C29.7746 32.7776 29.384 32.9773 29.0194 33.1335C28.6548 33.2898 28.2294 33.42 27.7433 33.5241V36.7012ZM33.9933 23.1595C34.0628 23.5415 34.1235 23.9061 34.1756 24.2533C34.2277 24.6005 34.2537 24.9304 34.2537 25.2429C34.2537 25.5554 34.2277 25.8852 34.1756 26.2325C34.1235 26.5797 34.0628 26.9443 33.9933 27.3262L36.7537 28.9929C38.1774 29.8262 39.6183 29.8522 41.0767 29.071C42.535 28.2897 43.2642 27.0137 43.2642 25.2428C43.2642 23.472 42.535 22.196 41.0767 21.4147C39.6183 20.6335 38.1774 20.6595 36.7537 21.4929L33.9933 23.1595ZM19.9829 25.295C19.9829 26.8228 20.5298 28.1335 21.6235 29.2273C22.7173 30.321 24.028 30.8679 25.5558 30.8679C27.0836 30.8679 28.3944 30.321 29.4881 29.2273C30.5819 28.1335 31.1287 26.8227 31.1287 25.295C31.1287 23.7672 30.5819 22.4564 29.4881 21.3627C28.3944 20.2689 27.0836 19.7221 25.5558 19.7221C24.028 19.7221 22.7173 20.269 21.6235 21.3627C20.5298 22.4565 19.9829 23.7672 19.9829 25.295Z" fill="#E5625E"/>
</svg>
