<svg width="51" height="51" viewBox="0 0 51 51" fill="none" xmlns="http://www.w3.org/2000/svg">
<path d="M40.5589 23.6543L48.3714 23.6586L48.3697 26.7836L40.5572 26.7793L40.5589 23.6543ZM35.0307 36.9846L37.2194 34.7983L42.7892 40.3222L40.5484 42.5085L35.0307 36.9846ZM23.883 40.3118L27.008 40.3135L27.0037 48.126L23.8787 48.1243L23.883 40.3118ZM2.53808 23.6333L10.3506 23.6377L10.3488 26.7627L2.53634 26.7583L2.53808 23.6333ZM35.0958 13.3909L40.5676 7.92514L42.7539 10.1138L37.23 15.6316L35.0958 13.3909ZM8.15381 40.3552L13.6777 34.7853L15.812 36.9219L10.3922 42.5439L8.15381 40.3552ZM23.9041 2.29095L27.0291 2.29268L27.0247 10.1052L23.8997 10.1035L23.9041 2.29095ZM8.17055 10.1469L10.3593 7.90849L15.825 13.3803L14.7827 14.5255L13.6883 15.6707L8.17055 10.1469ZM12.9539 25.2016C12.9558 21.7294 14.1727 18.7786 16.6046 16.3494C19.0365 13.9202 21.9886 12.7066 25.4608 12.7085C28.933 12.7104 31.8837 13.9273 34.3129 16.3592C36.7422 18.7911 37.9558 21.7431 37.9539 25.2154C37.9519 28.6876 36.735 31.6383 34.3031 34.0675C31.8712 36.4967 28.9192 37.7104 25.4469 37.7085C21.9747 37.7066 19.024 36.4897 16.5948 34.0578C14.1656 31.6259 12.952 28.6738 12.9539 25.2016ZM16.0789 25.2033C16.0774 27.8075 16.9877 30.0215 18.8096 31.8454C20.6315 33.6694 22.8445 34.582 25.4487 34.5835C28.0528 34.5849 30.2669 33.6747 32.0908 31.8528C33.9147 30.0309 34.8274 27.8178 34.8289 25.2136C34.8303 22.6095 33.9201 20.3954 32.0982 18.5715C30.2763 16.7476 28.0632 15.8349 25.4591 15.8335C22.8549 15.832 20.6409 16.7423 18.8169 18.5642C16.993 20.3861 16.0803 22.5991 16.0789 25.2033Z" fill="#FFFF00"/>
</svg>
