<svg width="51" height="51" viewBox="0 0 51 51" fill="none" xmlns="http://www.w3.org/2000/svg">
<path d="M4.67239 23.6777L14.8286 23.6833L7.07252 15.9186L9.26126 13.6803L19.2557 23.6858L23.9432 23.6884L23.9458 19.0009L14.1596 9.2038L16.2963 6.91331L23.9483 14.5738L23.9539 4.41753L27.0789 4.41925L27.0733 14.5755L34.8901 6.76731L37.1284 9.00812L27.0708 19.0026L27.0682 23.6901L31.8078 23.6927L41.6049 13.9064L43.8953 16.0952L36.2349 23.6951L46.339 23.7007L46.3373 26.8257L36.2332 26.8201L44.0413 34.6369L41.8005 36.8232L31.8061 26.8177L27.0665 26.8151L27.0639 31.5547L36.9021 41.4038L34.7134 43.6422L27.0614 35.9817L27.0558 46.0859L23.9308 46.0842L23.9364 35.98L16.1717 43.6841L13.9333 41.5474L23.9389 31.5529L23.9415 26.8134L19.254 26.8108L9.19636 36.8052L6.95796 34.6686L14.8269 26.8083L4.67065 26.8027L4.67239 23.6777Z" fill="white"/>
</svg>
